<?xml version="1.0" encoding="utf-8"?>
<!-- Generator: Adobe Illustrator 25.2.1, SVG Export Plug-In . SVG Version: 6.00 Build 0)  -->
<svg version="1.1" id="Layer_1" xmlns="http://www.w3.org/2000/svg" xmlns:xlink="http://www.w3.org/1999/xlink" x="0px" y="0px"
	 viewBox="0 0 454.68 297.33" style="enable-background:new 0 0 454.68 297.33;" xml:space="preserve">
<style type="text/css">
	.st0{fill-rule:evenodd;clip-rule:evenodd;fill:#FFFFFF;}
	.st1{fill:#FFFFFF;}
</style>
<g>
	<path class="st0" d="M206.39,172.9c-29.21,13.84-36.77-34.46-44.34-62.72c5.55,14.53,18.38,47.72,32.4,52.75
		c21.21,4.25,39.84-58,43.75-72.57C234.86,109.91,223.58,161.86,206.39,172.9L206.39,172.9z"/>
	<path class="st0" d="M256.78,172.48c-12.56-1.6-17.89-9.9-23.27-16.4c-2.39-2.89-4.56-5.49-5.96-6.84c14.17-1.56,29,50.71,69.78-57
		C295.78,116.19,283.33,171.77,256.78,172.48L256.78,172.48z"/>
	<path class="st0" d="M216.33,140.34c-2.28-2.57-10.81-16.71-15.49-21.1c4.76,12.79,9.82,19.78,10.59,22.17l-2.53-0.59
		c-14.83-3.15-20.36-21.89-20.4-35.53C204.61,107.97,224.62,122.56,216.33,140.34L216.33,140.34z"/>
	<path class="st0" d="M239.36,124.27c6.51-5.67,11.41-11.6,16.37-18.49c-3.32,1.21-13.47,12.77-18.53,16.88
		c0.3-14.89,13.75-29.83,31.12-33.17C269.7,106.21,256.91,124.72,239.36,124.27L239.36,124.27z"/>
	<path class="st0" d="M225.54,114.82c-1.95-5.3-5.66-12.46-9.01-17.32c1.41,8.57,4.92,14.11,7.06,17.97
		c-15.74-6.01-16.68-20.56-13.25-35.42C223.43,90.69,230.83,100.72,225.54,114.82L225.54,114.82z"/>
	<path class="st0" d="M239.41,90.14c2.02-5.31,2.83-14.28,3.46-19.87l-6.08,18.74c-13.11-13.96,5.94-30.61,12.06-35.5
		C257.63,79.26,244.82,88.89,239.41,90.14L239.41,90.14z"/>
	<path class="st0" d="M230.28,145.18c8.13-3.69,10.18-3.93,16.28-7.61c-7.37,1.09-10.84,3.64-16.84,6.08
		c5.63-11.7,20.86-14.49,31.63-10.55C258.02,143.57,241.55,150.9,230.28,145.18L230.28,145.18z"/>
	<path class="st0" d="M265.76,18.54c-23.01,1.21-34.31,8.6-57.03-0.31c25.05,0.18,37.66-7.82,54.76-12.95
		c13.78-4.12,31.65-1.15,40.29,9.46c20.88,25.66,7.4,84.15-11.73,114.59C305.1,77.87,314.08,16.01,265.76,18.54L265.76,18.54z"/>
	<path class="st0" d="M211.34,32.55c-27.51-6.11-39.2-13.67-48.2,7.12c-13.85,32-4.4,71.73,7.93,114.95
		c-36.07-52.43-38.99-138.97-15.63-148.2c10.09-3.28,22.06,3.14,32.12,8.04c26.43,12.85,39.7,17.18,71.58,11.41
		C247.09,35.15,226.8,35.98,211.34,32.55L211.34,32.55z"/>
	<path class="st0" d="M212.3,43.06c-25.58-2.1-40.77,2.21-42.92,30.33C161.54,29.38,189.29,37.56,212.3,43.06L212.3,43.06z"/>
	<path class="st1" d="M23.66,229.56c0,6.17,0,11.47-0.32,14.29c-0.19,1.95-0.57,3.42-1.85,3.69c-0.57,0.13-1.34,0.27-2.3,0.27
		c-0.77,0-1.02,0.2-1.02,0.54c0,0.47,0.45,0.67,1.28,0.67c2.55,0,6.57-0.2,8.04-0.2c1.79,0,5.81,0.2,10.02,0.2
		c0.7,0,1.21-0.2,1.21-0.67c0-0.34-0.32-0.54-1.02-0.54c-0.96,0-2.36-0.13-3.25-0.27c-1.91-0.27-2.3-1.74-2.49-3.62
		c-0.32-2.88-0.32-8.19-0.32-14.36v-27.51l8.04,0.2c5.68,0.13,7.4,2.01,7.53,3.76l0.06,0.74c0.06,1.01,0.19,1.34,0.7,1.34
		c0.38,0,0.51-0.4,0.57-1.07c0-1.74,0.19-6.37,0.19-7.78c0-1.01-0.06-1.41-0.51-1.41c-0.26,0-0.77,0.13-1.72,0.34
		c-0.96,0.13-2.36,0.34-4.4,0.34H16.83c-2.11,0-4.53-0.13-6.38-0.34c-1.6-0.13-2.23-0.81-2.74-0.81c-0.38,0-0.57,0.4-0.77,1.27
		c-0.13,0.54-1.34,6.64-1.34,7.72c0,0.74,0.13,1.07,0.57,1.07c0.38,0,0.57-0.27,0.7-0.81c0.13-0.54,0.45-1.34,1.08-2.35
		c0.96-1.48,2.49-1.81,6.19-1.95l9.51-0.27V229.56L23.66,229.56z"/>
	<path class="st1" d="M65.32,229.56c0,6.17,0,11.47-0.32,14.29c-0.26,1.95-0.57,3.42-1.85,3.69c-0.57,0.13-1.34,0.27-2.3,0.27
		c-0.77,0-1.02,0.2-1.02,0.54c0,0.47,0.45,0.67,1.28,0.67c1.28,0,2.94-0.13,4.4-0.13c1.53-0.07,2.94-0.07,3.64-0.07
		c1.91,0,3.89,0.07,6.64,0.2c2.74,0.07,6.25,0.2,11.04,0.2c2.42,0,3,0,3.45-1.74c0.32-1.34,0.83-5.9,0.83-7.45
		c0-0.67,0-1.21-0.51-1.21c-0.45,0-0.57,0.27-0.7,1.01c-0.45,2.75-1.21,4.16-2.87,4.96c-1.66,0.81-4.34,0.81-6,0.81
		c-6.51,0-7.53-1.01-7.66-5.64c-0.06-1.95,0-8.12,0-10.4v-5.3c0-0.4,0.06-0.67,0.38-0.67c1.53,0,7.85,0.07,9.06,0.2
		c2.36,0.27,3.25,1.28,3.57,2.62c0.19,0.87,0.19,1.74,0.26,2.42c0,0.34,0.13,0.6,0.57,0.6c0.57,0,0.57-0.74,0.57-1.27
		c0-0.47,0.19-3.15,0.26-4.5c0.26-3.42,0.51-4.5,0.51-4.9c0-0.4-0.19-0.54-0.45-0.54c-0.32,0-0.57,0.34-1.02,0.87
		c-0.57,0.67-1.53,0.87-3.06,1.01c-1.47,0.13-8.81,0.13-10.21,0.13c-0.38,0-0.45-0.27-0.45-0.74v-16.97c0-0.47,0.13-0.67,0.45-0.67
		c1.28,0,7.98,0.13,9.06,0.27c3.19,0.4,3.83,1.21,4.28,2.42c0.32,0.81,0.38,1.95,0.38,2.42c0,0.6,0.13,0.94,0.57,0.94
		c0.45,0,0.57-0.4,0.64-0.74c0.13-0.81,0.26-3.76,0.32-4.43c0.19-3.09,0.51-3.89,0.51-4.36c0-0.34-0.06-0.6-0.38-0.6
		c-0.32,0-0.7,0.2-1.02,0.27c-0.51,0.13-1.53,0.27-2.74,0.4c-1.21,0.07-13.91,0.07-15.95,0.07c-0.89,0-2.36-0.07-4.02-0.13
		c-1.6,0-3.45-0.07-5.17-0.07c-0.96,0-1.4,0.13-1.4,0.6c0,0.47,0.38,0.6,1.08,0.6c0.89,0,1.98,0.07,2.49,0.2
		c2.11,0.47,2.62,1.54,2.74,3.82c0.13,2.15,0.13,4.03,0.13,14.22V229.56L65.32,229.56z"/>
	<path class="st1" d="M137.74,205.14c1.91-2.95,3.19-4.83,4.66-5.23c0.89-0.27,1.66-0.4,2.3-0.4c0.64,0,1.02-0.2,1.02-0.6
		c0-0.4-0.45-0.6-1.15-0.6c-2.36,0-4.98,0.2-6.25,0.2c-1.21,0-3.89-0.2-6.38-0.2c-0.89,0-1.34,0.2-1.34,0.6
		c0,0.47,0.38,0.6,0.77,0.6c0.51,0,1.4,0,2.04,0.2c0.64,0.2,1.08,0.74,1.08,1.21c0,0.54-0.19,1.61-0.7,2.55
		c-0.96,1.88-6.83,11.2-8.68,14.16c-2.49-4.56-5.36-9.46-8.1-14.83c-0.38-0.74-0.64-1.54-0.64-1.95c0-0.4,0.19-0.87,0.77-1.07
		c0.51-0.2,1.34-0.27,1.72-0.27c0.57,0,0.96-0.13,0.96-0.6c0-0.47-0.38-0.6-1.28-0.6c-2.36,0-5.93,0.2-6.83,0.2
		c-3,0-8.17-0.2-9.7-0.2c-0.83,0-1.28,0.13-1.28,0.54c0,0.47,0.26,0.67,0.64,0.67c0.64,0,1.66,0.13,2.68,0.47
		c2.23,0.74,3.76,2.35,5.3,5.03l10.97,19.12l-12.19,18.32c-2.17,3.22-3.38,4.5-5.23,5.03c-0.96,0.27-1.91,0.34-2.36,0.34
		c-0.51,0-0.89,0.2-0.89,0.6c0,0.4,0.32,0.6,0.96,0.6h1.08c1.02,0,4.15-0.2,5.36-0.2c1.6,0,5.61,0.2,6,0.2h1.15
		c0.83,0,1.28-0.13,1.28-0.6c0-0.4-0.38-0.6-0.77-0.6c-0.51,0-1.08-0.07-1.47-0.13c-0.57-0.13-1.15-0.54-1.21-1.14
		c-0.06-0.74,0.26-1.74,0.89-2.82l9.44-16.04c2.94,5.03,6.57,11.67,10.08,18.25c0.45,0.87,0.19,1.48-0.13,1.54
		c-0.57,0.13-0.89,0.34-0.89,0.74c0,0.47,0.51,0.6,2.17,0.67c4.91,0.13,9.95,0.13,11.49,0.13H147c0.7,0,1.21-0.2,1.21-0.67
		c0-0.4-0.38-0.54-0.83-0.54c-0.57,0-1.34-0.07-2.42-0.4c-1.66-0.54-2.62-1.34-3.7-2.82c-1.6-2.15-11.93-20.33-13.97-23.62
		L137.74,205.14L137.74,205.14z"/>
	<path class="st1" d="M177.24,231.91c0.32,0,0.51,0.13,0.64,0.47l5.1,13.82c0.32,0.81-0.13,1.41-0.57,1.54
		c-0.64,0.07-0.89,0.2-0.89,0.6c0,0.47,0.77,0.47,1.91,0.54c5.1,0.13,9.76,0.13,12.06,0.13c2.36,0,2.94-0.13,2.94-0.67
		c0-0.47-0.32-0.54-0.83-0.54c-0.77,0-1.72-0.07-2.68-0.27c-1.34-0.34-3.19-1.27-5.61-7.31c-4.08-10.2-14.29-37.03-15.82-40.72
		c-0.64-1.54-1.02-2.15-1.6-2.15c-0.64,0-1.02,0.74-1.79,2.68l-16.02,41.6c-1.28,3.35-2.49,5.64-5.42,6.04
		c-0.51,0.07-1.4,0.13-1.98,0.13c-0.51,0-0.77,0.13-0.77,0.54c0,0.54,0.38,0.67,1.21,0.67c3.32,0,6.83-0.2,7.53-0.2
		c1.98,0,4.72,0.2,6.76,0.2c0.7,0,1.08-0.13,1.08-0.67c0-0.4-0.19-0.54-0.96-0.54h-0.96c-1.98,0-2.55-0.87-2.55-2.08
		c0-0.81,0.32-2.42,0.96-4.09l3.45-9.19c0.13-0.4,0.25-0.54,0.57-0.54H177.24L177.24,231.91z M164.29,228.55
		c-0.26,0-0.32-0.2-0.26-0.47l5.87-16.44c0.06-0.27,0.19-0.6,0.38-0.6c0.19,0,0.26,0.34,0.32,0.6l5.74,16.5c0.06,0.2,0,0.4-0.32,0.4
		H164.29L164.29,228.55z"/>
	<path class="st1" d="M215.14,249.96c3.38,0,6.95-0.6,10.15-2.75c4.59-3.15,6-7.78,6-11.67c0-6.37-2.74-11-10.46-17.11l-1.79-1.41
		c-5.3-4.23-6.76-6.57-6.76-9.66c0-4.03,2.87-6.91,7.59-6.91c4.15,0,6,2.01,6.96,3.29c1.34,1.74,1.66,3.82,1.66,4.43
		c0,0.81,0.19,1.21,0.64,1.21c0.51,0,0.7-0.54,0.7-2.01c0-5.23,0.26-7.18,0.26-8.05c0-0.47-0.32-0.67-0.89-0.81
		c-1.66-0.47-4.34-1.14-8.49-1.14c-8.87,0-14.74,5.3-14.74,12.68c0,5.43,2.42,10.13,9.44,15.9l2.94,2.42
		c5.3,4.36,6.25,7.45,6.25,10.73c0,3.56-2.81,7.65-8.55,7.65c-3.96,0-7.72-1.81-9.12-6.78c-0.32-1.14-0.57-2.55-0.57-3.42
		c0-0.54-0.06-1.14-0.64-1.14c-0.51,0-0.7,0.74-0.77,1.74c-0.06,1.07-0.32,5.1-0.32,8.79c0,1.48,0.19,1.81,1.21,2.28
		C208.57,249.49,211.44,249.96,215.14,249.96L215.14,249.96z"/>
	<path class="st1" d="M276.27,249.96c3.38,0,6.95-0.6,10.15-2.75c4.59-3.15,6-7.78,6-11.67c0-6.37-2.74-11-10.46-17.11l-1.79-1.41
		c-5.3-4.23-6.76-6.57-6.76-9.66c0-4.03,2.87-6.91,7.59-6.91c4.15,0,6,2.01,6.96,3.29c1.34,1.74,1.66,3.82,1.66,4.43
		c0,0.81,0.19,1.21,0.64,1.21c0.51,0,0.7-0.54,0.7-2.01c0-5.23,0.26-7.18,0.26-8.05c0-0.47-0.32-0.67-0.89-0.81
		c-1.66-0.47-4.34-1.14-8.49-1.14c-8.87,0-14.74,5.3-14.74,12.68c0,5.43,2.42,10.13,9.44,15.9l2.94,2.42
		c5.3,4.36,6.25,7.45,6.25,10.73c0,3.56-2.81,7.65-8.55,7.65c-3.96,0-7.72-1.81-9.12-6.78c-0.32-1.14-0.57-2.55-0.57-3.42
		c0-0.54-0.06-1.14-0.64-1.14c-0.51,0-0.7,0.74-0.77,1.74c-0.06,1.07-0.32,5.1-0.32,8.79c0,1.48,0.19,1.81,1.21,2.28
		C269.7,249.49,272.57,249.96,276.27,249.96L276.27,249.96z"/>
	<path class="st1" d="M329.23,231.91c0.32,0,0.51,0.13,0.64,0.47l5.1,13.82c0.32,0.81-0.13,1.41-0.57,1.54
		c-0.64,0.07-0.89,0.2-0.89,0.6c0,0.47,0.77,0.47,1.91,0.54c5.1,0.13,9.76,0.13,12.06,0.13c2.36,0,2.94-0.13,2.94-0.67
		c0-0.47-0.32-0.54-0.83-0.54c-0.77,0-1.72-0.07-2.68-0.27c-1.34-0.34-3.19-1.27-5.62-7.31c-4.08-10.2-14.29-37.03-15.82-40.72
		c-0.64-1.54-1.02-2.15-1.6-2.15c-0.64,0-1.02,0.74-1.79,2.68l-16.02,41.6c-1.28,3.35-2.49,5.64-5.42,6.04
		c-0.51,0.07-1.4,0.13-1.98,0.13c-0.51,0-0.77,0.13-0.77,0.54c0,0.54,0.38,0.67,1.21,0.67c3.32,0,6.83-0.2,7.53-0.2
		c1.98,0,4.72,0.2,6.76,0.2c0.7,0,1.08-0.13,1.08-0.67c0-0.4-0.19-0.54-0.96-0.54h-0.96c-1.98,0-2.55-0.87-2.55-2.08
		c0-0.81,0.32-2.42,0.96-4.09l3.45-9.19c0.13-0.4,0.26-0.54,0.57-0.54H329.23L329.23,231.91z M316.28,228.55
		c-0.25,0-0.32-0.2-0.25-0.47l5.87-16.44c0.06-0.27,0.19-0.6,0.38-0.6s0.26,0.34,0.32,0.6l5.74,16.5c0.06,0.2,0,0.4-0.32,0.4H316.28
		L316.28,228.55z"/>
	<path class="st1" d="M400.69,237.14c0-3.35,0-6.04,0.06-8.05c0.06-2.35,0.7-3.49,2.42-3.82c0.77-0.13,1.21-0.2,1.72-0.2
		c0.45,0,0.83-0.13,0.83-0.54c0-0.54-0.45-0.67-1.28-0.67c-2.11,0-5.49,0.2-7.47,0.2c-1.91,0-5.93-0.2-9.25-0.2
		c-0.89,0-1.34,0.13-1.34,0.67c0,0.4,0.38,0.54,0.96,0.54c0.89,0,1.98,0.07,2.49,0.2c2.11,0.47,2.68,1.54,2.74,3.82
		c0.06,2.01,0.06,4.56,0.06,7.92v6.31c0,1.14-0.26,2.01-1.21,2.48c-1.53,0.74-3.76,0.74-5.42,0.74c-13.46,0-22.21-10.8-22.21-25.23
		c0-8.25,2.3-13.28,5.87-16.44c4.47-3.89,9.12-4.16,12.63-4.16c7.21,0,12.31,3.09,14.23,5.23c1.66,1.88,1.98,4.03,2.17,5.57
		c0.06,0.54,0.19,0.87,0.64,0.87c0.51,0,0.7-0.34,0.7-1.41c0-8.39,0.45-10.27,0.45-11c0-0.47-0.13-0.74-0.89-0.81
		c-1.47-0.07-3.7-0.47-5.04-0.74c-1.28-0.27-6.89-1.07-11.29-1.07c-5.36,0-11.04,0.47-17.16,4.36c-5.81,3.69-11.1,11.2-11.1,21.94
		c0,18.52,13.85,26.3,29.48,26.3c4.98,0,11.23-0.74,15.38-3.02c0.77-0.47,0.83-0.6,0.83-2.42V237.14L400.69,237.14z"/>
	<path class="st1" d="M423.35,229.56c0,6.17,0,11.47-0.32,14.29c-0.26,1.95-0.57,3.42-1.85,3.69c-0.57,0.13-1.34,0.27-2.3,0.27
		c-0.77,0-1.02,0.2-1.02,0.54c0,0.47,0.45,0.67,1.28,0.67c1.28,0,2.94-0.13,4.4-0.13c1.53-0.07,2.94-0.07,3.64-0.07
		c1.91,0,3.89,0.07,6.64,0.2c2.74,0.07,6.25,0.2,11.04,0.2c2.42,0,3,0,3.45-1.74c0.32-1.34,0.83-5.9,0.83-7.45
		c0-0.67,0-1.21-0.51-1.21c-0.45,0-0.57,0.27-0.7,1.01c-0.45,2.75-1.21,4.16-2.87,4.96c-1.66,0.81-4.34,0.81-6,0.81
		c-6.51,0-7.53-1.01-7.66-5.64c-0.06-1.95,0-8.12,0-10.4v-5.3c0-0.4,0.06-0.67,0.38-0.67c1.53,0,7.85,0.07,9.06,0.2
		c2.36,0.27,3.25,1.28,3.57,2.62c0.19,0.87,0.19,1.74,0.26,2.42c0,0.34,0.13,0.6,0.57,0.6c0.57,0,0.57-0.74,0.57-1.27
		c0-0.47,0.19-3.15,0.26-4.5c0.26-3.42,0.51-4.5,0.51-4.9c0-0.4-0.19-0.54-0.45-0.54c-0.32,0-0.57,0.34-1.02,0.87
		c-0.57,0.67-1.53,0.87-3.06,1.01c-1.47,0.13-8.81,0.13-10.21,0.13c-0.38,0-0.45-0.27-0.45-0.74v-16.97c0-0.47,0.13-0.67,0.45-0.67
		c1.28,0,7.98,0.13,9.06,0.27c3.19,0.4,3.83,1.21,4.27,2.42c0.32,0.81,0.38,1.95,0.38,2.42c0,0.6,0.13,0.94,0.57,0.94
		s0.57-0.4,0.64-0.74c0.13-0.81,0.25-3.76,0.32-4.43c0.19-3.09,0.51-3.89,0.51-4.36c0-0.34-0.06-0.6-0.38-0.6
		c-0.32,0-0.7,0.2-1.02,0.27c-0.51,0.13-1.53,0.27-2.74,0.4c-1.21,0.07-13.91,0.07-15.95,0.07c-0.89,0-2.36-0.07-4.02-0.13
		c-1.6,0-3.45-0.07-5.17-0.07c-0.96,0-1.4,0.13-1.4,0.6c0,0.47,0.38,0.6,1.08,0.6c0.89,0,1.98,0.07,2.49,0.2
		c2.11,0.47,2.62,1.54,2.74,3.82c0.13,2.15,0.13,4.03,0.13,14.22V229.56L423.35,229.56z"/>
	<path class="st1" d="M7.3,290.95v-22.06h5.84c0.52,0,1.04,0.02,1.58,0.05c0.53,0.03,1.05,0.08,1.56,0.15
		c0.51,0.07,0.99,0.15,1.46,0.24c0.47,0.09,0.91,0.2,1.31,0.34c1.18,0.37,2.21,0.88,3.12,1.51c0.9,0.64,1.66,1.39,2.26,2.26
		c0.61,0.87,1.08,1.84,1.39,2.91c0.31,1.07,0.47,2.24,0.47,3.48c0,1.19-0.13,2.3-0.39,3.34c-0.26,1.04-0.66,1.99-1.21,2.84
		c-0.54,0.86-1.22,1.62-2.04,2.27c-0.82,0.65-1.79,1.19-2.91,1.61c-0.93,0.35-2,0.61-3.18,0.79c-1.19,0.17-2.53,0.26-4.01,0.26H7.3
		L7.3,290.95z M13.02,287.58c2.36,0,4.21-0.33,5.53-0.97c1.18-0.58,2.07-1.43,2.67-2.54c0.6-1.11,0.91-2.53,0.91-4.26
		c0-0.9-0.1-1.71-0.3-2.44c-0.2-0.73-0.48-1.37-0.86-1.94c-0.37-0.57-0.83-1.05-1.36-1.46c-0.53-0.41-1.14-0.74-1.81-1.01
		c-0.63-0.24-1.32-0.42-2.09-0.53c-0.77-0.11-1.63-0.16-2.59-0.16h-1.78v15.3H13.02L13.02,287.58z"/>
	<polygon class="st1" points="67.89,287.58 78.74,287.58 78.74,290.95 63.83,290.95 63.83,268.89 78.15,268.89 78.15,272.27 
		67.89,272.27 67.89,277.98 76.7,277.98 76.7,281.36 67.89,281.36 67.89,287.58 	"/>
	<path class="st1" d="M127.78,279.15c1.58,2.26,2.87,4.26,3.86,6h0.1c-0.13-2.87-0.2-4.95-0.2-6.27v-9.99h4.05v22.06h-4.24
		l-7.2-10.16c-1.27-1.76-2.57-3.79-3.93-6.11h-0.1c0.13,2.7,0.2,4.8,0.2,6.28v9.99h-4.05v-22.06h4.24L127.78,279.15L127.78,279.15z"
		/>
	<polygon class="st1" points="183.16,290.95 179.11,290.95 179.11,272.27 171.98,272.27 171.98,268.89 190.27,268.89 190.27,272.27 
		183.16,272.27 183.16,290.95 	"/>
	<polygon class="st1" points="226.63,290.95 226.63,268.89 230.69,268.89 230.69,290.95 226.63,290.95 	"/>
	<path class="st1" d="M280.05,284.61c0-0.56-0.14-1.01-0.41-1.36c-0.28-0.35-0.65-0.63-1.12-0.85c-0.47-0.23-1-0.4-1.59-0.54
		c-0.59-0.14-1.2-0.27-1.85-0.4c-0.86-0.19-1.68-0.41-2.45-0.67c-0.78-0.26-1.46-0.62-2.06-1.08c-0.59-0.46-1.06-1.04-1.41-1.74
		c-0.35-0.7-0.53-1.58-0.53-2.64c0-1.17,0.2-2.18,0.61-3.05c0.41-0.86,0.96-1.58,1.66-2.14c0.7-0.56,1.52-0.99,2.47-1.27
		c0.94-0.28,2-0.42,3.18-0.42c1.18,0,2.36,0.11,3.55,0.34c1.19,0.23,2.21,0.53,3.07,0.89v3.46c-1.14-0.45-2.24-0.78-3.29-0.98
		c-1.05-0.2-2.04-0.3-2.96-0.3c-1.33,0-2.35,0.24-3.07,0.73c-0.72,0.48-1.08,1.21-1.08,2.18c0,0.56,0.12,1.02,0.35,1.39
		c0.24,0.36,0.55,0.66,0.96,0.9c0.41,0.24,0.87,0.43,1.4,0.57c0.52,0.14,1.08,0.27,1.67,0.39c0.93,0.2,1.82,0.43,2.67,0.69
		c0.85,0.25,1.6,0.61,2.26,1.08c0.65,0.47,1.18,1.06,1.56,1.81c0.38,0.74,0.57,1.69,0.57,2.85c0,1.19-0.22,2.22-0.66,3.09
		c-0.44,0.87-1.06,1.59-1.87,2.16c-0.81,0.56-1.78,0.99-2.94,1.26c-1.16,0.28-2.42,0.41-3.79,0.41c-1.2,0-2.38-0.12-3.54-0.35
		c-1.16-0.24-2.12-0.57-2.89-1v-3.41c1.09,0.47,2.15,0.82,3.19,1.03c1.03,0.21,2.1,0.32,3.2,0.32c0.64,0,1.27-0.05,1.88-0.16
		c0.61-0.1,1.17-0.28,1.66-0.53c0.49-0.25,0.88-0.6,1.18-1.04C279.9,285.78,280.05,285.25,280.05,284.61L280.05,284.61z"/>
	<polygon class="st1" points="331.02,290.95 326.96,290.95 326.96,272.27 319.83,272.27 319.83,268.89 338.13,268.89 338.13,272.27 
		331.02,272.27 331.02,290.95 	"/>
	<path class="st1" d="M390.8,275.52c0,1.54-0.43,2.84-1.28,3.91c-0.85,1.07-2.17,1.86-3.95,2.38v0.06l6.62,9.08h-4.86l-6.01-8.55
		h-2.78v8.55h-4.05v-22.06h6.71c1.11,0,2.15,0.06,3.1,0.19c0.96,0.12,1.77,0.32,2.45,0.57c1.29,0.49,2.3,1.23,3,2.2
		C390.45,272.82,390.8,274.05,390.8,275.52L390.8,275.52z M380.53,279.03c0.92,0,1.71-0.04,2.35-0.12c0.64-0.08,1.18-0.21,1.62-0.37
		c0.81-0.3,1.37-0.73,1.69-1.26c0.31-0.53,0.47-1.14,0.47-1.84c0-0.59-0.12-1.12-0.37-1.58c-0.25-0.46-0.66-0.81-1.26-1.08
		c-0.38-0.18-0.87-0.3-1.45-0.39c-0.58-0.08-1.3-0.12-2.16-0.12h-2.88v6.76H380.53L380.53,279.03z"/>
	<polygon class="st1" points="437.06,278.39 442.94,268.89 447.42,268.89 439.06,282.07 439.06,290.95 435.01,290.95 435.01,282.07 
		426.65,268.89 431.13,268.89 437.01,278.39 437.06,278.39 	"/>
</g>
</svg>
